<?xml version="1.0" encoding="utf-8"?>
<!-- Generator: Adobe Illustrator 27.0.1, SVG Export Plug-In . SVG Version: 6.00 Build 0)  -->
<svg version="1.1" xmlns="http://www.w3.org/2000/svg" xmlns:xlink="http://www.w3.org/1999/xlink" x="0px" y="0px"
	 viewBox="0 0 512 512" style="enable-background:new 0 0 512 512;" xml:space="preserve">
<style type="text/css">
	.st0{fill:url(#SVGID_1_);stroke:#69D8F4;stroke-width:0.25;stroke-miterlimit:10;}
	.st1{fill:url(#SVGID_00000177459535006613932910000006554783602750523815_);}
	.st2{fill:url(#SVGID_00000168075105818095957760000007599279595600654237_);}
	.st3{fill:#299CE2;}
	.st4{fill:#2DA7ED;}
	.st5{fill:url(#SVGID_00000105397898860857561360000009859582035900064138_);}
	.st6{fill:url(#SVGID_00000100378509110449752840000017658887735801943686_);stroke:#69D8F4;stroke-width:3;stroke-miterlimit:10;}
	.st7{fill:#2692DB;}
	.st8{fill:#2AC4D0;}
	.st9{fill:#0C636A;}
	.st10{fill:url(#Head_back_00000057127153062231866250000009130582631879683252_);}
	.st11{opacity:0.61;fill:url(#SVGID_00000060710532699127084740000003152511778404384130_);}
	.st12{opacity:0.54;fill:#0C636A;}
	.st13{opacity:0.43;fill:url(#SVGID_00000000206804196525468720000011664140496003261119_);}
	.st14{fill:#FFFFFF;}
	.st15{fill:#09775C;}
	.st16{fill:#54F9BF;}
	.st17{fill:#5AFBD2;}
	.st18{fill:#075756;}
	.st19{fill:url(#Upper_teeth_00000041273998903965557750000008564367823484508568_);}
</style>
<g id="Sharp">
	<linearGradient id="SVGID_1_" gradientUnits="userSpaceOnUse" x1="188.7366" y1="230.4683" x2="188.8833" y2="349.0822">
		<stop  offset="0" style="stop-color:#35D9C8"/>
		<stop  offset="1" style="stop-color:#298ED6"/>
	</linearGradient>
	<path class="st0" d="M231.4,266.5H218l5.2-26.9c0.3-1.6-0.9-3.1-2.5-3.1h-10.4c-1.2,0-2.3,0.9-2.5,2.1l-5.4,27.9h-17.2l5.2-26.9
		c0.3-1.6-0.9-3.1-2.5-3.1h-10.4c-1.2,0-2.3,0.9-2.5,2.1l-5.4,27.9h-18.2c-1.4,0-2.5,1.1-2.5,2.5v11.6c0,1.4,1.1,2.5,2.5,2.5h14.9
		l-3.8,19.6h-16.3c-1.4,0-2.5,1.1-2.5,2.5v11.6c0,1.4,1.1,2.5,2.5,2.5h13.1l-4.9,25.2c-0.3,1.6,0.9,3.1,2.5,3.1h10.4
		c1.2,0,2.3-0.9,2.5-2.1l5.1-26.1h17.2l-4.9,25.2c-0.3,1.6,0.9,3.1,2.5,3.1h10.4c1.2,0,2.3-0.9,2.5-2.1l5.1-26.1h18.5
		c1.4,0,2.5-1.1,2.5-2.5v-11.6c0-1.4-1.1-2.5-2.5-2.5h-15.3l3.8-19.6h16.6c1.4,0,2.5-1.1,2.5-2.5V269
		C233.9,267.6,232.8,266.5,231.4,266.5z M195.3,302.7h-17.2l3.8-19.6h17.2L195.3,302.7z"/>
</g>
<g id="Telegram">
	
		<linearGradient id="SVGID_00000071560602208071737990000000285401934336183709_" gradientUnits="userSpaceOnUse" x1="466.5945" y1="230.3446" x2="344.6719" y2="347.3848">
		<stop  offset="0" style="stop-color:#32E3D3"/>
		<stop  offset="0.1154" style="stop-color:#2DCED2"/>
		<stop  offset="0.2447" style="stop-color:#28BBD2"/>
		<stop  offset="0.2676" style="stop-color:#27B9D2"/>
		<stop  offset="0.7535" style="stop-color:#1D8DD1"/>
		<stop  offset="1" style="stop-color:#197CD1"/>
	</linearGradient>
	<path style="fill:url(#SVGID_00000071560602208071737990000000285401934336183709_);" d="M370.9,317.2c-2.9,2.9-5.3,6.5-4.2,10.3
		c0.8,3,3.5,5,6.1,6.8c15.4,10.7,30.8,21.4,46.2,32.1c1.4,1,2.9,2,4.6,2.2c2.6,0.4,5.2-1.2,6.7-3.3c1.6-2.1,2.3-4.7,3.1-7.2
		c11-37.2,21.8-74.4,32.6-111.7c1-3.4,1.9-7.3,0.1-10.3c-1.5-2.5-4.7-3.7-7.6-3.7c-3,0-5.8,1-8.6,2c-47.8,17.4-95.6,34.8-143.5,52.2
		c-2.2,0.8-4.5,1.6-6.2,3.3c-3.4,3.3-2.1,8,2,9.8c10.7,4.8,21.7,9.1,32.5,13.7c1.5,0.6,3,1.2,4.6,1.1c1.5-0.1,2.8-0.9,4-1.6
		c26.2-15.6,52.4-31.3,78.7-46.9c4.7-2.8,9.6-5.7,15-6.8c1,2-0.9,4.3-2.7,5.7c-20.6,16.3-40.9,33.1-60.9,50.2
		C372.5,315.6,371.7,316.4,370.9,317.2z"/>
	
		<linearGradient id="SVGID_00000088819161137391949800000013359818811663459221_" gradientUnits="userSpaceOnUse" x1="358.8596" y1="314.4517" x2="358.8082" y2="344.5228">
		<stop  offset="0" style="stop-color:#32E3D3"/>
		<stop  offset="0.5516" style="stop-color:#24A8D2"/>
		<stop  offset="1" style="stop-color:#197CD1"/>
	</linearGradient>
	<path style="fill:url(#SVGID_00000088819161137391949800000013359818811663459221_);" d="M349.2,318.1c-2,0.6-3.9,1.8-4.5,2.8
		c-0.8,1.5-0.8,3.4-0.8,5.1c0,11.1,0,22.1,0.7,33.1c0.2,2.4,0.7,5.3,2.9,6.3c2.1,0.9,4.5-0.6,6.3-2c6.4-4.9,12.8-9.8,19.3-14.6
		c0.3-0.2,0.6-0.5,0.7-0.9c0.1-0.6-0.3-1.1-0.7-1.5c-5.3-4.9-12.1-8.7-14.7-15.5c-1.2-3-1.1-11.5-4.2-13.2
		C353,317.3,351,317.5,349.2,318.1z"/>
</g>
<g id="C_Letter">
	<g id="Tail">
		<path class="st3" d="M25.1,478.9c-0.1-0.1-0.2-0.3,0-0.7c7.4-16,15.6-31.8,21-48.6c2.1-6.6,3.8-13.2,4.8-20.1
			c1.1-7.3,1.6-14.6,1.6-22c-0.1-7.1-1.2-14.1-1.6-21.2c15.7,15.8,60.5,33.7,58.2,48.2c-0.3,2.1-1.5,3.3-4.3,6.1
			c-11,11.2-23.5,20.8-36.4,29.6c-4.6,3.1-9.6,5.9-14.1,9.1c-6.4,4.6-12.8,9.1-19.2,13.7c-2.2,1.5-4.3,3.1-6.6,4.5
			C28.2,478,25.6,479.4,25.1,478.9z"/>
		<g id="Слой_2">
			<path class="st4" d="M25.7,478.9c-0.3,0-0.6,0.1-0.9,0.1c-5.4-12.1-2.1-33-2.3-46.6c-0.1-10.3,0.7-25.3-0.2-55.4
				c0,0-0.4-13.1,3-110.6c0-1.2,0.2-4.1,2.1-6.6c0.7-0.9,1.5-1.5,2-1.9c21.7,21.4,23.6,61.7,42.7,86.4c0,0,33.4,43.1,33.7,59.9
				c0.1,3.6,0.2,11-4.3,17.6c-1.8,2.7-2.7,2.8-14.1,11.6c-7.6,5.9-8.3,6.8-14.8,11.7c-4.1,3.1-7.7,5.7-10.2,7.5
				c-2.5,2.2-4.5,3.8-6.3,5.2c-4.9,3.8-6.9,5-10.4,7.6c-3.5,2.5-6.9,5.2-10.4,7.7c-1.8,1.3-3.7,2.6-5.6,3.9
				C28.4,477.9,27.3,478.7,25.7,478.9z"/>
		</g>
	</g>
	<g id="Shadow">
		
			<linearGradient id="SVGID_00000160895525412451236080000003873567252444249243_" gradientUnits="userSpaceOnUse" x1="188.8279" y1="157.0157" x2="189.1479" y2="415.7521">
			<stop  offset="0" style="stop-color:#0D7181"/>
			<stop  offset="0.5218" style="stop-color:#0E577C"/>
			<stop  offset="1" style="stop-color:#0F4478"/>
		</linearGradient>
		<path style="fill:url(#SVGID_00000160895525412451236080000003873567252444249243_);" d="M310.4,384.5c-0.7-2.8-2.9-4.9-5.1-6.9
			c-12-10.9-23.9-21.8-35.9-32.7c-0.8-0.8-1.8-1.5-2.9-1.6c-1.4,0-2.5,1.2-3.4,2.3c-20.4,25-54.6,38.1-86.4,32.7s-60-29-70.3-59.6
			s-2.3-66.7,20.2-89.7c22.6-23.1,58.7-31.8,89.2-21.3c8.4,2.9,16.4,7.4,22.9,13.4c7.1,6.5,10.3,13.8,13.6,22.4
			c-0.7-1.7,6.2-10.2,7.3-11.8c2.7-4,5.6-7.8,8.7-11.4c6.2-7.3,13.1-14,20.7-19.9c7.6-5.9,15.7-11.1,24.4-15.3
			c4-1.9,7.8-6.8,2.2-9.9c-1.9-1.1-4.3-1.2-6.5-1.2c-34.4-1.1-68.8-2.1-103.3-3.2c-30.9-1-63.7-2.7-90.4,15.7c0,0-43.3,33-53.6,64.9
			c-6.8,30.8-0.3,62.3,15.6,94.3c11.9,29.1,30.7,49.5,57.6,59.6c22.5,8.5,93.3,8.6,114,4.5c11-2.2,21.9-5,32.6-8.4
			c6.5-2.1,13-4.3,19.4-6.8c4-1.6,10.6-4.3,9.4-9.9C310.4,384.6,310.4,384.6,310.4,384.5z"/>
	</g>
	
		<linearGradient id="SVGID_00000107573434111854881440000006671124049208919187_" gradientUnits="userSpaceOnUse" x1="166.5873" y1="152.6718" x2="162.5534" y2="435.7449">
		<stop  offset="0" style="stop-color:#32E3D3"/>
		<stop  offset="0.603" style="stop-color:#32BDE0"/>
		<stop  offset="1" style="stop-color:#32A2EA"/>
	</linearGradient>
	
		<path style="fill:url(#SVGID_00000107573434111854881440000006671124049208919187_);stroke:#69D8F4;stroke-width:3;stroke-miterlimit:10;" d="
		M260.7,349.4c-8.5,13.8-17.4,21.9-22.9,26.2c-3.7,2.9-6.9,4.9-7.9,5.5c-2.3,1.4-10.4,6.3-22.3,9.9c0,0-13.2,4-27.1,4.2
		c-18.1,0.3-48.4-5.9-72.5-29.7c-29.1-28.6-31-64.4-31.1-73.7c-0.1-6.6-0.2-45.4,29.5-75.6c5.2-5.3,20.5-20.5,45.7-26.6
		c24.9-6,48.2-0.4,59.6,5.9c5.6,3.1,11.9,7.6,11.9,7.6c4.6,3.6,9.8,7.1,15,13.1c2.6,3,4.5,5.7,5.8,7.6c0.7,0.9,1.5,2,2.2,3.2
		c0.2,0.3,0.3,0.6,0.5,0.9c3.4-4.3,8.5-10.8,14.8-18.6c6.9-8.6,10.3-12.9,11.4-14.3c6-7.4,15.4-17.8,29.8-30.2
		c-12.6-6.4-30.3-14.1-52.2-20.3c-7.4-2.1-16.7-4.5-27.5-6.5c-12.7-2.3-27.3-4.1-43.3-4c-12.7,0.1-57.9,1.9-99,35
		c-1.3,1-2.5,2.1-3.8,3.2c-50.1,43.1-54.2,102.2-54.8,112.7c0.1,9.9,1.7,76.8,57.1,123.4c44.6,37.5,95.3,37.7,108.4,37.3
		c13.6-0.2,37.2-2.2,63.4-14.1c27.6-12.5,45.2-30.1,54.2-40.5L260.7,349.4z"/>
	<path class="st7" d="M261,351.7c-3.8,6.3-10.4,15.6-21,24.2c-3,2.5-16.1,12.7-35.8,17.8c-30.1,7.8-55.7-1.5-65.2-5.5
		c-9.1,13.2-18.1,26.5-27.2,39.7c13.9,6.6,38,15.9,69.1,16.5c27.1,0.5,47.9-5.9,57.1-9.1c26.3-9.3,43.5-23,49.4-28
		c6.9-5.9,12.2-11.4,16-15.7C289.3,378.1,275.1,364.9,261,351.7z"/>
	<path class="st8" d="M247.1,225.4c5.2-6.7,10.6-13.4,16.1-20.2c7.9-9.7,15.8-19.1,23.6-28.1c-19.3-11.7-38.6-23.4-57.8-35
		c-5.9,17.2-11.8,34.4-17.7,51.6c5.7,3.1,12.7,7.6,19.9,14C238.2,213.9,243.4,220.2,247.1,225.4z"/>
</g>
<g id="Head">
	<g id="Under_teeth">
		<path class="st9" d="M350.6,125.6c0.4-0.5,0.9-1,1.3-1.5c0.7-0.8,1.5-1.6,2.4-2.2c0.5-0.3,1.1-0.6,1.6-0.4
			c0.3,0.1,0.5,0.3,0.7,0.6c2.8,3.5,4.5,7.7,5.9,11.9c0.8,2.5-3,2.3-4.5,2.3c-1.9-0.1-3.8-0.3-5.7-0.6c0,0-6-1.6-6.1-1.6
			c-0.3-0.1-0.5-0.6-0.6-0.8c-0.3-0.5-0.4-0.6-0.1-1.1c0.6-1,1.4-1.8,2.1-2.7C348.5,128.1,349.5,126.9,350.6,125.6z"/>
		<path class="st9" d="M417.6,131.9c0.3-0.4,0.5-0.7,0.8-1.1c0.6-0.8,1.5-1.7,2.6-1.2c0.6,0.3,1,0.8,1.4,1.4
			c1.8,2.5,3.5,5.1,4.9,7.9c0.3,0.5,0.5,1.1,0.8,1.7c0.2,0.3,0.8,1.4,0.7,1.8c-0.1,0.4-1.4,0.6-1.8,0.8c-1.1,0.3-2.2,0.7-3.3,1
			l-7.5,0.1l-6-0.6c0,0-0.1-1-0.1-1c0-0.2,0.5-0.7,0.6-0.8c0.4-0.5,0.7-1,1.1-1.6c0.7-1.1,1.5-2.1,2.2-3.2
			C415.1,135.3,416.3,133.6,417.6,131.9z"/>
		<path class="st9" d="M459.2,132.2c0.9-1.1,1.7-2.2,2.6-3.3c1.1-1.4,2.4-1.4,3.3,0.2c1.6,2.8,3.1,5.9,3.4,9.1
			c0.1,0.5,0.3,1.6-0.1,1.8c-0.3,0.1-0.9-0.1-1.2-0.2c-0.7-0.1-1.5-0.2-2.2-0.3l-6.3,0.1c0,0-3.1-0.6-3.1-0.6
			c-0.2-0.2-0.5-0.4-0.6-0.6c-0.2-0.5,0.1-0.7,0.4-1.1c0.7-1,1.4-1.9,2.1-2.9C458.1,133.7,458.6,132.9,459.2,132.2z"/>
	</g>
	
		<linearGradient id="Head_back_00000012462491276977566630000006153081879977312677_" gradientUnits="userSpaceOnUse" x1="277.0925" y1="27.3163" x2="277.3058" y2="199.8176">
		<stop  offset="0" style="stop-color:#23D9AA"/>
		<stop  offset="0.2165" style="stop-color:#25DAB0"/>
		<stop  offset="0.5189" style="stop-color:#2CDCC3"/>
		<stop  offset="0.8704" style="stop-color:#37DFE0"/>
		<stop  offset="1" style="stop-color:#3CE0ED"/>
	</linearGradient>
	<path id="Head_back" style="fill:url(#Head_back_00000012462491276977566630000006153081879977312677_);" d="M67.3,181.7
		c-2.1,2.2-4.2,4.6-6.3,7.1c-2.5,2.9-4.8,6.5-7.6,9.1c-0.8-5.8,0.7-12.7,1.2-18.6c0.1-1,0.2-2,0.6-3c1.3-2.7,5-3,8-3.5
		c3.6-0.7,7.1-2.4,9.8-5c0.9-0.8,1.7-1.7,2.1-2.8c0.7-1.6,0.6-3.4,0.6-5.2c0-4.8,0.4-9.6,1.4-14.3c0.3-1.3,0.7-2.8,1.7-3.7
		c0.9-0.7,2-1,3.1-1.2c3.4-0.6,6.8-1.2,10.2-1.9c1.7-0.3,3.5-0.7,5-1.6c3-1.9,2.9-7,3.6-10.2c0.9-3.7,1.4-12.2,5.5-13.7
		c1.3-0.5,2.8-0.5,4.2-0.5c3.8,0,7.6,0,11.4,0c4.8,0,6.7-2.5,8.3-6.8c1.6-4.3,3.5-8.5,5.6-12.6c3.2-6.1,13.8-2.2,19.2-1.5
		c1.4,0.2,2.9,0.4,4.4,0.1c3.5-0.7,5.3-5.1,6.9-7.8c1.6-2.7,6-9,6-9s1.2-1.7,1.8-2c4.2-1.9,11,1,15.3,2.3c4.8,1.5,8,1.9,11.5-2
		c3.2-3.6,5.2-8.4,9-11.4c5.1-4.1,12.8,0.1,18.4,1.6c1.4,0.4,2.8,0.7,4.2,0.7c4.8-0.2,8.7-4.1,12.5-6.5c4.5-2.9,9.4-4.7,13.6-8
		c6-4.7,11.8-12.1,19.8-13.2c5.7-0.8,12.5-0.6,17.9,1.3c7.8,2.7,15.3,5.9,22.6,9.7c0,0,4.3-2.4,4.8-2.6c1.8-0.6,3.9-1.1,5.7-1.2
		c4.2-0.3,8.4,1.2,12,3.3c5.1,3,9.3,7.2,14.3,10.3c6.1,3.9,12.8,5.1,19.8,6.6c0,0,0.2,1.3,21.9,2.9c21.6,1.5,24.9,1.3,24.9,1.3
		c5.1-0.4,10.1-0.8,15.2-1.3c2-0.2,4.9,0.1,6.8-0.5c4.5-1.5,7.8-7.4,12-9.8c4.3-2.5,9.7-3,14.4-1.4c3,1,5.9,2.9,9,2.4
		c1.3-0.2,2.4-0.8,3.7-1.2c4.3-1.2,9,0.8,12,4c3,3.3,4.5,7.6,5.3,12c1.3,6.8,1.5,22.8-7.7,24.2c-6.8,1.1-15.1-0.6-21.9-0.8
		c-8,0-16-0.6-24-0.9l-23,8.4l-12.3,4.4l-17.4-3.6l-22.2-0.5l-24.3,5.3l-23.5,9.9l-15,0.8l-15.4-3.4l-16.1-8.3l-10.4-8.8
		c0,0-1.9-0.9-1.9-0.9c-2.9,1.6-2.3,4-1.2,6.9c5.9,15.7,20.8,27.7,37.4,30.1c14.4,2.1,28-2.8,42.2-3.4c10.4-0.4,21.2,2.7,31,6.1
		c24.8,8.4,66,2.9,73.7,1.2c4.9-1.1,10.2-1.7,15.3-1.4c1.4,0.1,4.2-0.1,5.1,1.1c1.6,2-0.2,6.3-1.2,8.2
		c-5.5,11.1-21.6,16.4-24.4,17.3c-16.9,5.4-30.3,5.7-41.2,6.2c-32.8,1.7-51.9,2.8-74.2,9.5c-11.1,3.4-21.7,7.7-37.8,7.5
		c-13.1-0.2-21.5-3.3-24.2-4.4c-11.4-4.6-18.4-11.4-23.5-16.5c-9.8-9.8-15.8-20.5-19.5-29.3c-11.3-2.3-26-4.2-43.2-3.7
		c-16.2,0.5-30,3-40.7,5.7c-6.5,2-13.6,4.6-21.1,7.8c-11.8,5.2-21.8,10.9-30.1,16.4C81,169.6,74.2,175.7,67.3,181.7z"/>
	<g id="Chin_Shadow">
		
			<linearGradient id="SVGID_00000159442137244598756060000003784714784260311734_" gradientUnits="userSpaceOnUse" x1="320.4741" y1="74.1995" x2="320.6161" y2="189.0317">
			<stop  offset="0" style="stop-color:#0C636A"/>
			<stop  offset="0.1413" style="stop-color:#0C636A"/>
			<stop  offset="1" style="stop-color:#0C636A"/>
		</linearGradient>
		<path style="opacity:0.61;fill:url(#SVGID_00000159442137244598756060000003784714784260311734_);" d="M423.6,168.8
			c0,0-12.1,1-36.4,2.6c-15,0.9-28.7,1.8-42.3,4.6c-8.2,1.7-14.2,3.3-14.2,3.3c-6,1.6-7.7,2.4-15.3,4.5c-5.8,1.6-8.8,2.4-12.4,3
			c-1.8,0.3-6.7,1-13,0.8c-4.6-0.1-13.4-0.3-23.2-4c-9.4-3.5-15.3-8.6-20.5-13.1c-4.4-3.8-17-14.9-23.3-31.8
			c-2.4-6.5-3.7-13.4-4.1-15.1c-0.9-4.8-1.5-8.1-1.5-12.6c0-2.5,0.2-12.6,5.3-20.8c1.9-3,3.9-5.1,3.9-5.1c2.2-2.4,5.3-4.9,5.3-4.9
			l0,0c-2.4,3-5.7,8-7.9,14.8c-6.6,20.8,4.4,39.7,6.6,43.4c5.6,9.6,13.2,16.3,16.3,19c1.4,1.2,4.4,3.7,7.8,6
			c14.1,9.4,29.3,11.1,34,11.6c20.4,2.1,36.9-4,45.1-6.6C352.4,162.5,381,158.5,423.6,168.8z"/>
	</g>
	<g id="Head_shadow">
		<path class="st12" d="M223,138.4c-2.9-9.5-5.6-19.1-5.4-29c0.2-10,3.8-20.3,11.6-26.5c2.3-1.8,5.2-4.4,3.8-6.9
			c-18.3,7.9-33.3,23.3-40.7,41.9c-0.7,1.7-1.4,3.7-3.1,4.6c-1,0.5-2.1,0.6-3.1,0.7c-26.5,2.4-52.6,9.4-76.5,21
			c-5.8,2.8-11.5,6-16.6,10.1c-4.1,3.3-11,9.3-11.7,14.7c2.1-2.4,4.9-3.8,7.6-5.6c3.1-2.1,6.3-4.1,9.5-5.9c6.5-3.7,13.2-7,20.1-9.9
			c13.8-5.7,28.4-9.6,43.2-11.6c20.4-2.8,41.4-1.9,61.4,2.9C223,138.6,223,138.5,223,138.4z"/>
	</g>
	
		<linearGradient id="SVGID_00000129201229392636779620000001626724325497719996_" gradientUnits="userSpaceOnUse" x1="262.3183" y1="79.9892" x2="262.4867" y2="216.1365">
		<stop  offset="0" style="stop-color:#0C636A"/>
		<stop  offset="0.1413" style="stop-color:#0C636A"/>
		<stop  offset="1" style="stop-color:#0C636A"/>
	</linearGradient>
	<path style="opacity:0.43;fill:url(#SVGID_00000129201229392636779620000001626724325497719996_);" d="M273.8,214.4
		c0,0,6.2-7.7,19.6-17.2c13.1-9.3,22-13.4,22-13.4c-4.5,1.5-10.8,3-18.3,3.6c-3.8,0.3-11.2,0.8-20-1c-13.4-2.8-22.4-9.3-27.6-13.2
		c-6.8-5.1-16.2-13.8-23.2-27.1c-2.1-4-5.9-12.2-7.8-23.4c-1.1-6.4-2.1-13-0.1-21.2c1.6-6.5,4.4-11.4,6.5-14.5
		c-1.3,1.1-2.8,2.4-4.4,4c-1.3,1.2-3.2,3-5,5.5c-12.7,17.8-2.9,44.1,1.2,55.3C230,187.4,260.5,206.9,273.8,214.4z"/>
	<g id="Eye">
		<path class="st14" d="M286.7,70.7c0.3,0.1,0.7,0.3,1,0.4c2.5,0.8,5.1,1,7.6,1.4c2.4,0.4,4.6,0.7,7.1,0.5c2.6-0.2,5.2-0.7,7.7-1.3
			c3-0.6,5.4-1.7,8-3.2c-0.2,0.1-2.3-1.8-2.5-2c-1.3-1-2.6-2.2-3.9-3.2c-2.9-2.2-6-3.9-9.2-5.5c-2.1-1.1-4.2-2.1-6.3-3.2
			c-1-0.5-1.9-1-2.9-1.4c-1.2-0.5-2.4-0.8-3.6-1.1c-1.7-0.4-3.3-0.9-5-1.3c-1.4-0.4-3.1-1.2-4.5-0.6c-2.5,1.1-4.9,2.1-7.4,3.2
			c-1.3,0.6-1.2,1.4-1.1,2.6c0.3,2.5,1.3,4.8,3,6.6c0,0,0.1,0.1,0.1,0.1c0.9,1,2,1.8,3.1,2.6C280.9,67.2,283.6,69.4,286.7,70.7z"/>
		<g id="Слой_18">
			<path class="st15" d="M324.3,68c-0.2-0.3-0.9-0.5-1.5-0.7c-9.4-3.9-16.2-11.6-25-16.6c-4.7-2.6-10.1-4.3-15.4-3.6
				c-4.5,0.6-8.6,3-11.9,6.1c-0.9,0.9-1.8,1.8-2.5,2.9c-0.3,0.4-2,3.2-0.6,3.1c0.2,0,0.5-0.1,0.7-0.2c2.3-1.2,4.6-2.3,7-3.2
				c1.3-0.5,2.5-0.9,3.8-1.2c0.9-0.2,3.8-1.5,3.4,0.5c-0.1,0.3-0.2,0.6-0.4,0.9c-0.7,1.5-1.2,3.1-1.3,4.7c-0.1,1.7,0.5,3.1,0.8,4.7
				c0,0.3,0,0.6-0.3,0.7c-0.1,0.1-0.2,0.1-0.4,0.1c-0.6,0.1-1.2,0.1-1.7-0.2c-0.4-0.2-0.7-0.6-1-1c-1.4-1.6-3.9-2.1-5.8-1.1
				c-1.5,0.7-1.5,2.3-0.7,3.6c0.5,0.8,1.1,1.4,1.8,2c7.6,6.3,18.1,8.7,27.9,7.5c4.1-0.5,8-1.6,11.9-3c1.9-0.7,3.8-1.5,5.6-2.3
				c1.1-0.5,2.3-1,3.4-1.7c0.6-0.3,1.3-0.7,1.7-1.1C324.4,68.5,324.5,68.2,324.3,68z M313.4,69c-0.9,0.5-4.7,0.9-4.7,0.9l-6.6,0.5
				c0,0-6.3,0.7-10.5-0.8c-4.2-1.5-4.4,0.6-3.1-3.5s2.8-9.9,2.8-9.9s2.8,0.3,12.2,6.1c9.4,5.7,10.8,5.8,10.8,5.8
				S314.3,68.5,313.4,69z"/>
		</g>
		<g id="Brow">
			<path class="st16" d="M275.1,39.6C275.1,39.6,275.2,39.6,275.1,39.6c10.9-3.4,22.7,0.7,32.5,6.4s18.8,13.1,29.5,16.9
				c-7.1-7.5-14.4-15-23.1-20.7c-8.6-5.7-18.8-9.6-29.1-9.3c-10.3,0.3-20.8,5.4-26,14.4c-0.8,1.3-4.3,8.1-2.6,9.3
				c1,0.7,4-5.6,4.7-6.5C264.5,45.4,269.4,41.5,275.1,39.6z"/>
		</g>
	</g>
	<g id="Nose">
		<path class="st17" d="M405.7,67.5c-12.2-0.6-24.4-2.2-36.3-4.8c-1.1-0.2-2.3-0.4-3.3-0.7l-13.8-0.1c0,0-1.7-0.1-2.2,0.3
			c-0.5,0.4-0.5,0.5-0.5,0.5s3.5,0.3,10.6,2.6c11.5,3.8,23.6,4.7,35.6,5.4c16.5,1,33.6,1.9,49.1-3.9c-0.6,2-1.1,4-1.7,6
			c5-3.9,9.1-9.2,15.1-11.4c4.4-1.7,9.5-1.5,14,0.1c4.5,1.6,8.5,4.4,11.8,7.8c0.8-0.3,0.5-1.4,0.1-2.1c-1.1-1.9-2.3-3.9-3.4-5.8
			c2.7-1.4,6-1.3,9-0.4c2.9,0.9,5.5,2.6,8.1,4.3c-1.6-5.9-8-10-14.1-9.1c-2.3,0.4-4.5,1.4-6.9,1.2c-2-0.2-3.7-1.2-5.6-1.9
			c-6.4-2.5-14.2-1-19.3,3.6c-2.5,2.3-4.4,5.2-7.4,6.6c-1.6,0.7-3.3,0.9-5,1.1C428.2,67.8,416.9,68.1,405.7,67.5z"/>
		<g id="Слой_15">
			<path class="st18" d="M477.9,75.1c-4.3-0.8-8.7-1.6-12.7-3.5c-0.7-0.3-1.3-0.7-1.8-1.3c-0.3-0.5-0.5-1.1-0.6-1.6
				c-0.1-0.5-0.1-1,0.1-1.4c0.2-0.4,0.7-0.6,1.1-0.7c0.9-0.3,1.9-0.3,2.8-0.3c2,0.1,3.9,0.8,5.6,1.9c2.3,1.4,4.2,3.5,5.5,5.8"/>
		</g>
	</g>
	
		<linearGradient id="Upper_teeth_00000043443896451520920890000002611461100229575358_" gradientUnits="userSpaceOnUse" x1="374.5542" y1="87.83" x2="374.5962" y2="121.7909">
		<stop  offset="0" style="stop-color:#0C636A"/>
		<stop  offset="0.1413" style="stop-color:#0C636A"/>
		<stop  offset="1" style="stop-color:#0C636A"/>
	</linearGradient>
	<path id="Upper_teeth" style="fill:url(#Upper_teeth_00000043443896451520920890000002611461100229575358_);" d="M251.6,103.4
		c-0.3-0.3-0.3-1.1,0.2-2.4c1.3-4,5.1-7.6,8.8-9.5c5-2.5,11.2-2.3,16.1,0.3c-3.1,0.3-6.1,1.3-8.6,3.1c13.1,12.9,31.5,21.1,49.9,19.3
		c20.5-2,38.8-16,59.5-15.9c11.3,0.1,22.3,4.4,33.5,3.4c10.3-0.9,19.6-6.1,29.4-9.2c10.5-3.3,21.8-4,32.7-2.2
		c8.2,1.4,16.6,4.2,24.8,2.3c-2.8,5.5-6.6,10.4-11.2,14.5c-0.6,0.6-1.4,1.2-2.3,1.1c-2.4-0.3-1.4-3.9-1.5-6.3
		c-0.1-2.3-2.1-4.2-4.4-5c-2.2-0.7-4.6-0.6-7-0.4c-1.6,0.1-3.2,0.3-4.6,1.1c-1.7,1.1-2.5,3-3.4,4.8c-1.7,3.1-4,5.9-6.8,8
		c-2.4-3.7-4.8-7.3-7.3-11c-0.5-0.7-1-1.4-1.7-1.7c-0.8-0.3-1.7,0-2.5,0.3c-4.7,1.6-9.4,3.3-14.1,4.9c-6,2.1-12.6,4.7-15.2,10.5
		c-1,2.3-2,5.4-4.5,5.4c-2.6,0-3.5-3.3-4.6-5.6c-2.9-5.8-10.5-7.1-17-7.6c-5.3-0.4-12.2,0.1-13.6,5.2c-0.6,2-0.8,5-2.9,4.9
		c-1.3-0.1-2-1.6-2.7-2.8c-2.1-3.7-6.9-5.3-11.2-4.9c-4.3,0.4-8.3,2.3-12.2,4.1c-12.1,5.5-25.2,10-38.5,9.2
		c-16.5-1-31.7-10-43.2-21.8c-0.8-0.9-1.8-1.8-3-2c-1.1-0.2-2.2,0.3-3.2,0.9c-1.9,1.1-3.7,2.4-5.3,3.9
		C252.9,103.3,252,103.8,251.6,103.4z"/>
</g>
</svg>
